<?xml version="1.0" standalone="no"?>
<!DOCTYPE svg PUBLIC "-//W3C//DTD SVG 20010904//EN"
 "http://www.w3.org/TR/2001/REC-SVG-20010904/DTD/svg10.dtd">
<svg version="1.0" xmlns="http://www.w3.org/2000/svg"
 width="200.000000pt" height="200.000000pt" viewBox="0 0 200.000000 200.000000"
 preserveAspectRatio="xMidYMid meet">
<metadata>
Created by potrace 1.11, written by Peter Selinger 2001-2013
</metadata>
<g transform="translate(0.000000,200.000000) scale(0.100000,-0.100000)"
fill="#000000" stroke="none">
<path d="M550 1848 c-32 -12 -68 -45 -86 -80 -46 -88 26 -198 130 -200 106 -2
175 104 132 200 -29 65 -114 104 -176 80z"/>
<path d="M1312 1834 c-72 -43 -93 -115 -55 -191 64 -131 269 -79 267 68 -1
112 -117 179 -212 123z"/>
<path d="M955 1811 c-11 -5 -35 -40 -54 -80 -59 -125 -195 -236 -326 -266 -27
-7 -90 -10 -139 -8 -81 3 -92 1 -113 -19 -33 -31 -30 -71 12 -128 117 -160
120 -390 5 -553 -47 -68 -51 -103 -15 -137 25 -24 36 -25 140 -16 161 13 348
-105 434 -275 28 -54 44 -75 64 -82 53 -17 73 -3 118 83 64 124 160 209 280
251 50 17 85 22 159 21 120 -1 134 2 148 33 19 41 14 61 -23 114 -117 163
-120 393 -5 553 47 66 51 104 16 137 -21 20 -31 22 -101 18 -204 -13 -392 95
-475 271 -39 84 -71 105 -125 83z m141 -358 c74 -67 226 -137 320 -148 36 -4
38 -10 19 -57 -17 -44 -21 -60 -34 -138 -13 -86 -2 -199 29 -288 11 -30 18
-58 15 -61 -2 -4 -17 -8 -34 -9 -110 -8 -259 -87 -358 -190 -40 -41 -73 -70
-73 -65 0 17 -72 94 -124 132 -90 66 -221 121 -289 121 -33 0 -40 12 -26 47
52 136 56 303 8 440 -10 31 -17 58 -14 61 2 3 15 6 29 7 50 6 143 38 211 73
49 25 92 59 145 113 l74 77 28 -37 c16 -20 49 -55 74 -78z"/>
<path d="M175 1171 c-69 -21 -115 -79 -115 -142 0 -41 35 -102 71 -123 38 -23
109 -23 147 -1 38 23 72 83 72 127 0 83 -101 163 -175 139z"/>
<path d="M1715 1160 c-54 -28 -78 -63 -82 -124 -12 -162 209 -209 273 -59 49
115 -81 238 -191 183z"/>
<path d="M531 468 c-141 -73 -83 -273 75 -263 82 5 139 71 131 152 -11 104
-112 159 -206 111z"/>
<path d="M1319 472 c-71 -37 -101 -124 -65 -188 28 -50 64 -75 115 -80 81 -7
145 47 155 133 13 100 -112 182 -205 135z"/>
</g>
</svg>
